<svg xmlns="http://www.w3.org/2000/svg" xmlns:xlink="http://www.w3.org/1999/xlink" viewBox="0 0 36 36">
<title>🐳: spouting whale (U+1F433) - emojiall.com</title>
<style>svg{stroke:#edf2f6;animation:dashoffset 10s both infinite,fill-opacity 10s both infinite,stroke-opacity 10s both infinite;stroke-dasharray:500%;stroke-dashoffset:500%}@keyframes stroke-opacity{2%,25%{stroke-opacity:.75;stroke-width:2%}100%,75%{stroke-opacity:0;stroke-width:0}}@keyframes fill-opacity{10%,25%{fill-opacity:0}0%,100%,50%{fill-opacity:1}}@keyframes dashoffset{0%,2%{stroke-dashoffset:500%}100%{stroke-dashoffset:0%}}</style>
<path fill="#3B88C3" d="M32 12c2.122-2.122 5 14.312-3 21-2.757 2.305-6 2.969-8 2.969-2.371 0-10.029.031-13 .031-7.18 0-8-4.925-8-11s.82-11 8-11c6 0 10 2 13 3.996 4.977 3.312 5.992 3.861 8 2.004 3.213-2.97 1-6 3-8z"/>
<path fill="#55ACEE" d="M34.003 23c-.465 3.727-2.041 7.523-5.003 10-2.757 2.305-6 2.969-8 2.969-2.371 0-10.029.031-13 .031-4.035 0-6.062-1.555-7.062-3.996C.157 30.102 4 33 15 33c14 0 17-5 19.003-10z"/>
<path fill="#3B88C3" d="M32 14c4.123 0 4-5 4-7s-2 1-5 2-7-2-6 0 3 5 7 5z"/>
<path fill="#55ACEE" d="M10 7c0 2.209-.896 6-2 6S6 9.209 6 7s.896-2 2-2 2-.209 2 2z"/>
<path fill="#55ACEE" d="M8 5c0-3-6-2-6 0s3 1 4 3 2-3 2-3zm0 0c0-3 6-2 6 0s-3 1-4 3-2-3-2-3z"/>
<circle fill="#292F33" cx="6.5" cy="25.5" r="1.5"/>
<a xlink:href="https://www.emojiall.com/en/emoji/%F0%9F%90%B3"><text x="36" y="34" font-size="1px" fill="#888da8" text-anchor="end" font-family="apple color emoji,segoe ui emoji,noto color emoji,android emoji,emojisymbols,emojione mozilla,twemoji mozilla,segoe ui symbol,Noto Color Emoji Compat,emoji,sans-serif">🐳</text></a>
<a xlink:href="https://www.emojiall.com/"><text x="36" y="35" font-size="0.8px" fill="#888da8" text-anchor="end"><title>www.emojiall.com</title>emojiall.com</text></a>
</svg>